#!OML:ASF X:\für Bonn\!DataBase\2005_08_11_Bastian_Final\c3d\Bastian.ASF
:FULLY-SPECIFIED
:DEGREES
541
root -2.39261 1.17933 21.5156 -1002.66 -1.70728 -178.35
lowerback 12.5429 -1.06003 1.57121
upperback 8.9177 -2.1876 0.817534
thorax 2.31536 -1.51538 0.173385
lowerneck -14.9223 -4.66612 -5.81333
upperneck 5.49654 -5.75159 5.63977
head 4.38357 -2.68072 2.20633
rclavicle 3.22031e-014 -2.3556e-014
rhumerus -61.4218 56.4549 -107.825
rradius 24.5651
rwrist -12.3832
rhand -14.5004 -2.62378
rfingers 7.12502
rthumb 11.6466 -32.2801
lclavicle 3.22031e-014 -2.3556e-014
lhumerus -50.3724 -50.5021 104.847
lradius 24.8758
lwrist 31.8108
lhand -11.3158 -0.924855
lfingers 7.12502
lthumb 14.7163 28.5328
rfemur 4.69667 7.46475 24.8945
rtibia 30.8433
rfoot -23.9003 -34.3045
rtoes 4.68138
lfemur 4.91895 -2.2976 -17.1645
ltibia 23.2757
lfoot 9.09776 -5.4986
ltoes -12.7817
542
root -2.39339 1.17935 21.516 -1002.63 -1.71225 -178.315
lowerback 12.5377 -1.0851 1.58004
upperback 8.85074 -2.2094 0.821211
thorax 2.24645 -1.52124 0.176308
lowerneck -15.1346 -4.65164 -5.77124
upperneck 5.47749 -5.72861 5.62016
head 4.40819 -2.66733 2.19201
rclavicle 4.92986e-014 -4.41302e-014
rhumerus -61.556 56.4089 -107.91
rradius 24.5662
rwrist -12.3677
rhand -14.464 -2.70293
rfingers 7.12502
rthumb 11.6817 -32.3573
lclavicle 4.92986e-014 -4.41302e-014
lhumerus -50.5365 -50.5231 105.041
lradius 24.8064
lwrist 31.8856
lhand -11.2811 -0.992629
lfingers 7.12502
lthumb 14.7497 28.4626
rfemur 4.66789 7.49879 24.8879
rtibia 30.8393
rfoot -23.9895 -34.3736
rtoes 4.76953
lfemur 4.90154 -2.07 -17.0704
ltibia 23.2615
lfoot 8.81344 -5.47282
ltoes -12.8257
543
root -2.39336 1.17948 21.5159 -1002.59 -1.70856 -178.289
lowerback 12.5101 -1.09474 1.59726
upperback 8.80662 -2.21322 0.827144
thorax 2.21393 -1.51886 0.173555
lowerneck -15.4043 -4.65466 -5.72551
upperneck 5.49227 -5.72671 5.58651
head 4.45293 -2.66407 2.16963
rclavicle 3.89618e-014 -3.38928e-014
rhumerus -61.5736 56.3437 -107.899
rradius 24.561
rwrist -12.3904
rhand -14.43 -2.73768
rfingers 7.12502
rthumb 11.7145 -32.3901
lclavicle 3.89618e-014 -3.38928e-014
lhumerus -50.5689 -50.5182 105.113
lradius 24.7047
lwrist 31.8732
lhand -11.1962 -1.08284
lfingers 7.12502
lthumb 14.8315 28.3664
rfemur 4.63624 7.52973 24.8867
rtibia 30.8389
rfoot -24.1424 -34.3956
rtoes 5.10672
lfemur 4.88201 -1.77448 -16.9427
ltibia 23.2439
lfoot 8.51549 -5.51827
ltoes -13.1126
544
root -2.39425 1.17946 21.516 -1002.57 -1.71334 -178.256
lowerback 12.5 -1.11163 1.61666
upperback 8.76799 -2.2272 0.818524
thorax 2.17715 -1.52175 0.155984
lowerneck -15.7021 -4.64554 -5.65555
upperneck 5.51225 -5.71393 5.55884
head 4.50262 -2.65447 2.14573
rclavicle -7.55382e-015 -8.84592e-015
rhumerus -61.507 56.2595 -107.824
rradius 24.5059
rwrist -12.2681
rhand -14.391 -2.76108
rfingers 7.12502
rthumb 11.7521 -32.4114
lclavicle -7.55382e-015 -8.84592e-015
lhumerus -50.6293 -50.5427 105.174
lradius 24.6518
lwrist 31.8993
lhand -11.1649 -1.13703
lfingers 7.12502
lthumb 14.8616 28.31
rfemur 4.60058 7.41357 24.8327
rtibia 30.8453
rfoot -24.0423 -34.3906
rtoes 4.9271
lfemur 4.88936 -1.56908 -16.8499
ltibia 23.2209
lfoot 8.23725 -5.43356
ltoes -12.954
545
root -2.39455 1.17978 21.5152 -1002.55 -1.74263 -178.225
lowerback 12.4962 -1.1271 1.57777
upperback 8.71338 -2.24283 0.832189
thorax 2.12256 -1.52778 0.195034
lowerneck -15.9276 -4.63677 -5.67659
upperneck 5.50473 -5.68711 5.55545
head 4.5348 -2.6392 2.14669
rclavicle 1.66979e-014 -1.96797e-014
rhumerus -61.5697 56.2136 -107.807
rradius 24.5043
rwrist -12.2531
rhand -14.3531 -2.76923
rfingers 7.12502
rthumb 11.7886 -32.4175
lclavicle 1.66979e-014 -1.96797e-014
lhumerus -50.7074 -50.5026 105.297
lradius 24.596
lwrist 31.9591
lhand -11.1092 -1.14269
lfingers 7.12502
lthumb 14.9153 28.3003
rfemur 4.58505 7.45457 24.8047
rtibia 30.8515
rfoot -24.208 -34.4331
rtoes 5.04651
lfemur 4.89376 -1.34226 -16.7764
ltibia 23.1996
lfoot 7.95973 -5.37741
ltoes -12.9841
546
root -2.39444 1.17983 21.5156 -1002.51 -1.7372 -178.189
lowerback 12.4691 -1.14123 1.5836
upperback 8.67158 -2.25457 0.847037
thorax 2.09298 -1.53052 0.20866
lowerneck -16.1845 -4.6374 -5.66287
upperneck 5.50392 -5.67659 5.5283
head 4.57311 -2.63238 2.13266
rclavicle -1.03368e-014 7.35503e-015
rhumerus -61.6404 56.1958 -107.83
rradius 24.5164
rwrist -12.2931
rhand -14.3228 -2.80828
rfingers 7.12502
rthumb 11.8179 -32.4548
lclavicle -1.03368e-014 7.35503e-015
lhumerus -50.7965 -50.5829 105.472
lradius 24.4838
lwrist 32.0863
lhand -11.0919 -1.21582
lfingers 7.12502
lthumb 14.932 28.2259
rfemur 4.53925 7.44471 24.7979
rtibia 30.8671
rfoot -24.2525 -34.465
rtoes 5.0448
lfemur 4.88012 -1.06011 -16.6442
ltibia 23.172
lfoot 7.70359 -5.37571
ltoes -13.1189
547
root -2.39582 1.17998 21.5155 -1002.48 -1.7156 -178.15
lowerback 12.4504 -1.16491 1.63524
upperback 8.63213 -2.27489 0.843905
thorax 2.05925 -1.53545 0.17912
lowerneck -16.4245 -4.63045 -5.63728
upperneck 5.48987 -5.66298 5.52808
head 4.60499 -2.62295 2.12583
rclavicle -1.35174e-014 -7.35503e-015
rhumerus -61.7334 56.1702 -107.917
rradius 24.5157
rwrist -12.3382
rhand -14.3082 -2.86076
rfingers 7.12502
rthumb 11.8319 -32.5065
lclavicle -1.35174e-014 -7.35503e-015
lhumerus -50.7936 -50.5161 105.451
lradius 24.4383
lwrist 32.034
lhand -11.0241 -1.20843
lfingers 7.12502
lthumb 14.9973 28.2285
rfemur 4.49635 7.36847 24.7812
rtibia 30.8849
rfoot -24.2491 -34.4663
rtoes 5.13493
lfemur 4.89294 -0.849202 -16.5083
ltibia 23.1418
lfoot 7.4224 -5.25346
ltoes -12.7944
548
root -2.39621 1.17997 21.5131 -1002.46 -1.71619 -178.12
lowerback 12.4389 -1.17923 1.64844
upperback 8.6023 -2.28777 0.841308
thorax 2.03304 -1.539 0.170851
lowerneck -16.7018 -4.62435 -5.60074
upperneck 5.47422 -5.64954 5.51087
head 4.6413 -2.61403 2.11139
rclavicle 1.35174e-014 -1.76918e-014
rhumerus -61.7014 56.1073 -107.872
rradius 24.5025
rwrist -12.32
rhand -14.2805 -2.89563
rfingers 7.12502
rthumb 11.8586 -32.5398
lclavicle 1.35174e-014 -1.76918e-014
lhumerus -50.8095 -50.5026 105.476
lradius 24.3696
lwrist 32.0147
lhand -11.0016 -1.22638
lfingers 7.12502
lthumb 15.019 28.2089
rfemur 4.47663 7.41666 24.7894
rtibia 30.9066
rfoot -24.4204 -34.4913
rtoes 5.33566
lfemur 4.92047 -0.618853 -16.3885
ltibia 23.1119
lfoot 7.13456 -5.14985
ltoes -12.6558
549
root -2.39689 1.1799 21.5132 -1002.42 -1.71455 -178.081
lowerback 12.4181 -1.19203 1.65506
upperback 8.55109 -2.29627 0.85808
thorax 1.99016 -1.53967 0.18619
lowerneck -16.9193 -4.62573 -5.62806
upperneck 5.45007 -5.63692 5.51922
head 4.66812 -2.6059 2.1161
rclavicle 1.19271e-015 -2.92213e-014
rhumerus -61.6824 56.0145 -107.77
rradius 24.4921
rwrist -12.3301
rhand -14.2663 -2.85854
rfingers 7.12502
rthumb 11.8723 -32.502
lclavicle 1.19271e-015 -2.92213e-014
lhumerus -50.8337 -50.4544 105.545
lradius 24.2948
lwrist 31.9923
lhand -10.9412 -1.23384
lfingers 7.12502
lthumb 15.0772 28.1971
rfemur 4.4105 7.31518 24.7474
rtibia 30.9334
rfoot -24.3318 -34.5004
rtoes 5.14473
lfemur 4.92622 -0.4236 -16.2706
ltibia 23.0778
lfoot 6.89188 -4.99132
ltoes -12.1571
550
root -2.39739 1.17982 21.5117 -1002.39 -1.72019 -178.046
lowerback 12.3885 -1.20821 1.65687
upperback 8.52092 -2.31264 0.858607
thorax 1.97377 -1.54519 0.187244
lowerneck -17.15 -4.62291 -5.62466
upperneck 5.39409 -5.62476 5.52437
head 4.68607 -2.59815 2.11493
rclavicle 2.38542e-015 -1.04362e-014
rhumerus -61.6156 55.9528 -107.681
rradius 24.4637
rwrist -12.2926
rhand -14.2249 -2.86794
rfingers 7.12502
rthumb 11.9123 -32.509
lclavicle 2.38542e-015 -1.04362e-014
lhumerus -50.8309 -50.4381 105.554
lradius 24.2578
lwrist 32.0264
lhand -10.9119 -1.22474
lfingers 7.12502
lthumb 15.1054 28.2041
rfemur 4.3678 7.37341 24.749
rtibia 30.9613
rfoot -24.4753 -34.5404
rtoes 5.34682
lfemur 4.94441 -0.260109 -16.1648
ltibia 23.0409
lfoot 6.60838 -4.79364
ltoes -11.617
551
root -2.39812 1.18029 21.5109 -1002.36 -1.71748 -178.006
lowerback 12.3685 -1.22432 1.66259
upperback 8.48983 -2.32885 0.869884
thorax 1.95166 -1.55105 0.197616
lowerneck -17.3895 -4.61439 -5.61904
upperneck 5.35478 -5.60242 5.50734
head 4.70915 -2.58624 2.10725
rclavicle 3.97569e-016 1.48095e-014
rhumerus -61.7655 55.9834 -107.787
rradius 24.4979
rwrist -12.4092
rhand -14.2167 -2.90334
rfingers 7.12502
rthumb 11.9201 -32.544
lclavicle 3.97569e-016 1.48095e-014
lhumerus -50.8662 -50.4558 105.643
lradius 24.1782
lwrist 32.0627
lhand -10.9203 -1.23796
lfingers 7.12502
lthumb 15.0973 28.1915
rfemur 4.32995 7.36088 24.744
rtibia 30.99
rfoot -24.4778 -34.6118
rtoes 5.09091
lfemur 4.97036 -0.0240548 -16.0273
ltibia 23.0018
lfoot 6.34416 -4.64829
ltoes -11.1503
552
root -2.39857 1.18048 21.5105 -1002.33 -1.70004 -177.978
lowerback 12.339 -1.24133 1.69883
upperback 8.45161 -2.34197 0.869306
thorax 1.92559 -1.55308 0.178153
lowerneck -17.5962 -4.59831 -5.57562
upperneck 5.30678 -5.57935 5.48133
head 4.72297 -2.57444 2.09147
rclavicle 9.93923e-015 -2.37548e-014
rhumerus -61.7669 55.9244 -107.766
rradius 24.4963
rwrist -12.4761
rhand -14.1736 -2.90111
rfingers 7.12502
rthumb 11.9617 -32.5393
lclavicle 9.93923e-015 -2.37548e-014
lhumerus -50.8507 -50.411 105.623
lradius 24.119
lwrist 32.0515
lhand -10.8808 -1.24263
lfingers 7.12502
lthumb 15.1353 28.1839
rfemur 4.27957 7.29078 24.727
rtibia 31.0197
rfoot -24.5141 -34.5679
rtoes 5.26003
lfemur 4.98514 0.149652 -15.8921
ltibia 22.9634
lfoot 6.0478 -4.42042
ltoes -10.9164
553
root -2.39971 1.18051 21.5087 -1002.3 -1.70427 -177.945
lowerback 12.3221 -1.25567 1.6904
upperback 8.42576 -2.35827 0.885638
thorax 1.90809 -1.56022 0.201648
lowerneck -17.8022 -4.58722 -5.59257
upperneck 5.22124 -5.55196 5.48419
head 4.72719 -2.56052 2.09505
rclavicle 2.26615e-014 -2.98177e-014
rhumerus -61.8756 55.9702 -107.829
rradius 24.5119
rwrist -12.5821
rhand -14.1397 -2.8813
rfingers 7.12502
rthumb 11.9944 -32.5176
lclavicle 2.26615e-014 -2.98177e-014
lhumerus -50.8502 -50.4143 105.699
lradius 24.0497
lwrist 32.107
lhand -10.8736 -1.229
lfingers 7.12502
lthumb 15.1422 28.197
rfemur 4.23442 7.26445 24.7052
rtibia 31.057
rfoot -24.5169 -34.5937
rtoes 5.19992
lfemur 5.01817 0.317411 -15.7729
ltibia 22.917
lfoot 5.79026 -4.15144
ltoes -10.1039
554
root -2.39983 1.1806 21.5074 -1002.28 -1.70009 -177.896
lowerback 12.3123 -1.27734 1.7062
upperback 8.38752 -2.37948 0.88153
thorax 1.87185 -1.56739 0.191543
lowerneck -18.0048 -4.58131 -5.60081
upperneck 5.17951 -5.5381 5.51406
head 4.74596 -2.55108 2.10415
rclavicle -3.53837e-014 4.03533e-014
rhumerus -61.934 55.926 -107.853
rradius 24.5365
rwrist -12.6094
rhand -14.1157 -2.93497
rfingers 7.12502
rthumb 12.0176 -32.5699
lclavicle -3.53837e-014 4.03533e-014
lhumerus -50.8549 -50.3785 105.701
lradius 23.9819
lwrist 32.0852
lhand -10.8578 -1.20112
lfingers 7.12502
lthumb 15.1574 28.2238
rfemur 4.20329 7.34049 24.7309
rtibia 31.0936
rfoot -24.6907 -34.6629
rtoes 5.35612
lfemur 5.05124 0.487907 -15.6383
ltibia 22.8671
lfoot 5.51435 -3.91114
ltoes -9.41389
555
root -2.40107 1.18087 21.5048 -1002.24 -1.70499 -177.859
lowerback 12.2659 -1.29156 1.69972
upperback 8.36866 -2.39625 0.895602
thorax 1.87742 -1.57446 0.21032
lowerneck -18.2313 -4.56749 -5.60472
upperneck 5.10752 -5.50837 5.50534
head 4.75654 -2.53622 2.10194
rclavicle 7.15625e-015 5.36719e-015
rhumerus -61.8646 55.884 -107.734
rradius 24.5345
rwrist -12.6546
rhand -14.0927 -2.88578
rfingers 7.12502
rthumb 12.0397 -32.5195
lclavicle 7.15625e-015 5.36719e-015
lhumerus -50.7518 -50.3083 105.645
lradius 23.9113
lwrist 32.0572
lhand -10.8186 -1.20561
lfingers 7.12502
lthumb 15.1952 28.2164
rfemur 4.13914 7.32117 24.7093
rtibia 31.1446
rfoot -24.6848 -34.6842
rtoes 5.24954
lfemur 5.08196 0.623643 -15.5239
ltibia 22.8004
lfoot 5.22224 -3.58404
ltoes -8.57218
